<svg width="30" height="30" viewBox="0 0 30 30" fill="none" xmlns="http://www.w3.org/2000/svg">
<path d="M27.8571 12.8571H17.1429V2.14286C17.1429 0.959429 16.1835 0 15.0001 0C13.8166 0 12.8572 0.959429 12.8572 2.14286V12.8571H2.14287C0.959433 12.8571 0 13.8166 0 15C0 16.1834 0.959433 17.1429 2.14287 17.1429H12.8572V27.8571C12.8572 29.0406 13.8166 30 15.0001 30C16.1835 30 17.1429 29.0406 17.1429 27.8571V17.1429H27.8571C29.0406 17.1429 30 16.1834 30 15C30 13.8166 29.0407 12.8571 27.8571 12.8571Z" fill="#3091EB"/>
</svg>
