<svg width="17" height="17" viewBox="0 0 17 17" fill="none" xmlns="http://www.w3.org/2000/svg">
<path d="M15.7857 7.28571H9.71433V1.21429C9.71433 0.543676 9.17065 0 8.50004 0C7.82943 0 7.28575 0.543676 7.28575 1.21429V7.28571H1.21429C0.543679 7.28571 0 7.82939 0 8.5C0 9.17061 0.543679 9.71429 1.21429 9.71429H7.28575V15.7857C7.28575 16.4563 7.82943 17 8.50004 17C9.17065 17 9.71433 16.4563 9.71433 15.7857V9.71429H15.7857C16.4563 9.71429 17 9.17061 17 8.5C17 7.82939 16.4564 7.28571 15.7857 7.28571Z" fill="#3091EB"/>
</svg>
