<svg width="45" height="35" viewBox="0 0 45 35" fill="none" xmlns="http://www.w3.org/2000/svg">
<rect width="45" height="34.7143" rx="17.3571" fill="white"/>
<path d="M28.2644 7.2529C28.2644 7.2529 30.1476 6.36245 29.9907 8.52497C29.9384 9.41543 29.4676 12.532 29.1014 15.903L27.846 25.8888C27.846 25.8888 27.7414 27.3516 26.7997 27.6061C25.8581 27.8605 24.4458 26.7156 24.1842 26.4612C23.9749 26.2704 20.2609 23.4082 18.9531 22.009C18.5869 21.6273 18.1685 20.8641 19.0054 19.9736L24.4981 13.6133C25.1258 12.85 25.7535 11.0691 23.138 13.2317L15.8145 19.274C15.8145 19.274 14.9775 19.91 13.4082 19.3376L10.008 18.0655C10.008 18.0655 8.75254 17.1115 10.8973 16.1574C16.1284 13.168 22.5626 10.115 28.2644 7.2529Z" fill="#3091EB"/>
</svg>
