<svg width="66" height="61" viewBox="0 0 66 61" fill="none" xmlns="http://www.w3.org/2000/svg">
<rect width="66" height="56" rx="28" fill="url(#paint0_linear_84_11)"/>
<path d="M20.575 50.675C18.7917 50.675 17.1167 50.3417 15.55 49.675C13.9833 48.9917 12.625 48.025 11.475 46.775C10.3417 45.525 9.51667 44.05 9 42.35L14.05 40.95C14.5333 42.5 15.375 43.6917 16.575 44.525C17.775 45.3417 19.1083 45.7417 20.575 45.725C21.8917 45.7083 23.05 45.4 24.05 44.8C25.05 44.2 25.8333 43.3917 26.4 42.375C26.9667 41.3417 27.25 40.1583 27.25 38.825C27.25 36.825 26.625 35.175 25.375 33.875C24.1417 32.575 22.525 31.925 20.525 31.925C19.9583 31.925 19.375 32.0083 18.775 32.175C18.1917 32.3417 17.6417 32.5583 17.125 32.825L14.675 28.7L27.375 17.475L27.925 18.975H10.425V14H32.075V18.975L21.525 29.125L21.475 27.425C23.7417 27.425 25.7083 27.9333 27.375 28.95C29.0417 29.95 30.325 31.3167 31.225 33.05C32.1417 34.7667 32.6 36.6917 32.6 38.825C32.6 41.125 32.0583 43.1667 30.975 44.95C29.9083 46.7333 28.4667 48.1333 26.65 49.15C24.85 50.1667 22.825 50.675 20.575 50.675Z" fill="white"/>
<defs>
<linearGradient id="paint0_linear_84_11" x1="8.85274" y1="7.154" x2="87.4137" y2="12.9813" gradientUnits="userSpaceOnUse">
<stop stop-color="#6BABE5"/>
<stop offset="1" stop-color="#A5CDF2"/>
</linearGradient>
</defs>
</svg>
