<svg width="70" height="54" viewBox="0 0 70 54" fill="none" xmlns="http://www.w3.org/2000/svg">
<rect width="70" height="54" rx="27" fill="white"/>
<path d="M43.967 11.2825C43.967 11.2825 46.8964 9.89736 46.6522 13.2613C46.5709 14.6464 45.8385 19.4944 45.2689 24.7382L43.316 40.2717C43.316 40.2717 43.1533 42.5472 41.6886 42.943C40.2238 43.3387 38.0268 41.5579 37.6199 41.1621C37.2944 40.8653 31.5171 36.413 29.4827 34.2364C28.9131 33.6427 28.2621 32.4554 29.564 31.0703L38.1082 21.1765C39.0846 19.9892 40.0611 17.2189 35.9925 20.5828L24.6004 29.982C24.6004 29.982 23.2984 30.9714 20.8573 30.0809L15.5681 28.1022C15.5681 28.1022 13.6151 26.6181 16.9514 25.1339C25.0886 20.4838 35.0974 15.7347 43.967 11.2825Z" fill="#3091EB"/>
</svg>
