<svg width="66" height="61" viewBox="0 0 66 61" fill="none" xmlns="http://www.w3.org/2000/svg">
<rect width="66" height="56" rx="28" fill="url(#paint0_linear_84_10)"/>
<path d="M9.5 49.975L9.525 45.325L25.2 31.275C26.4667 30.1583 27.325 29.0917 27.775 28.075C28.2417 27.0583 28.475 26.0417 28.475 25.025C28.475 23.7417 28.1917 22.5917 27.625 21.575C27.0583 20.5417 26.275 19.725 25.275 19.125C24.275 18.525 23.125 18.225 21.825 18.225C20.4917 18.225 19.3 18.5417 18.25 19.175C17.2167 19.7917 16.4083 20.6167 15.825 21.65C15.2417 22.6833 14.9583 23.8 14.975 25H9.625C9.625 22.6667 10.15 20.625 11.2 18.875C12.2667 17.1083 13.725 15.7333 15.575 14.75C17.425 13.75 19.5417 13.25 21.925 13.25C24.1917 13.25 26.225 13.7667 28.025 14.8C29.825 15.8167 31.2417 17.2167 32.275 19C33.325 20.7833 33.85 22.8167 33.85 25.1C33.85 26.75 33.6333 28.15 33.2 29.3C32.7667 30.45 32.1167 31.5167 31.25 32.5C30.3833 33.4833 29.3 34.55 28 35.7L15.9 46.5L15.325 45H33.85V49.975H9.5Z" fill="white"/>
<defs>
<linearGradient id="paint0_linear_84_10" x1="8.85274" y1="7.154" x2="87.4137" y2="12.9813" gradientUnits="userSpaceOnUse">
<stop stop-color="#6BABE5"/>
<stop offset="1" stop-color="#A5CDF2"/>
</linearGradient>
</defs>
</svg>
