<svg width="6" height="6" viewBox="0 0 6 6" fill="none" xmlns="http://www.w3.org/2000/svg">
<path d="M2.83152 5.733C2.37552 5.733 1.96152 5.628 1.58952 5.418C1.22352 5.208 0.929516 4.923 0.707516 4.563C0.491516 4.197 0.383516 3.786 0.383516 3.33C0.383516 2.874 0.491516 2.466 0.707516 2.106C0.929516 1.74 1.22352 1.452 1.58952 1.242C1.96152 1.032 2.37552 0.927 2.83152 0.927C3.25752 0.927 3.64752 1.032 4.00152 1.242C4.36152 1.452 4.64652 1.74 4.85652 2.106C5.07252 2.466 5.18052 2.874 5.18052 3.33C5.18052 3.786 5.07252 4.197 4.85652 4.563C4.64652 4.923 4.36152 5.208 4.00152 5.418C3.64752 5.628 3.25752 5.733 2.83152 5.733Z" fill="#3091EB"/>
</svg>
