<svg width="20" height="20" viewBox="0 0 20 20" fill="none" xmlns="http://www.w3.org/2000/svg">
<g clip-path="url(#clip0_103_390)">
<path d="M9.46017 6.97949C8.07324 6.97949 6.94189 8.16346 6.94189 9.6218C6.94189 11.0764 8.06948 12.2641 9.46017 12.2641C10.8471 12.2641 11.9784 11.0802 11.9784 9.6218C11.9784 8.16722 10.8471 6.97949 9.46017 6.97949Z" fill="#3091EB"/>
<path d="M9.46027 13.7978C7.22765 13.7978 5.40848 11.926 5.40848 9.62194C5.40848 7.3179 7.22765 5.44611 9.46027 5.44611C11.6929 5.44611 13.5121 7.3179 13.5121 9.62194C13.5121 11.926 11.6929 13.7978 9.46027 13.7978ZM18.7178 9.21601C16.3198 5.36718 13.0873 3.24731 9.62565 3.24731C6.16396 3.24731 2.93155 5.36718 0.533546 9.21601C0.379443 9.46408 0.379443 9.7798 0.533546 10.0279C2.93155 13.8767 6.16396 15.9966 9.62565 15.9966C13.0873 15.9966 16.316 13.8767 18.7178 10.0279C18.8719 9.7798 18.8719 9.46408 18.7178 9.21601Z" fill="#3091EB"/>
</g>
<defs>
<clipPath id="clip0_103_390">
<rect width="19.2441" height="19.2441" fill="white" transform="translate(0.00341797)"/>
</clipPath>
</defs>
</svg>
