<svg width="128" height="20" viewBox="0 0 128 20" fill="none" xmlns="http://www.w3.org/2000/svg">
<path d="M5.925 19V4.175H0.25V1H15V4.175H9.325V19H5.925Z" fill="#3091EB"/>
<path d="M24.5088 19.375C23.3755 19.375 22.2963 19.175 21.2713 18.775C20.2463 18.3667 19.338 17.7667 18.5463 16.975C17.763 16.1833 17.1421 15.2042 16.6838 14.0375C16.2338 12.8708 16.0088 11.525 16.0088 10C16.0088 8.00833 16.388 6.31667 17.1463 4.925C17.913 3.525 18.938 2.45833 20.2213 1.725C21.513 0.991667 22.9421 0.625 24.5088 0.625C26.8255 0.625 28.6463 1.1625 29.9713 2.2375C31.2963 3.3125 32.1838 4.83333 32.6338 6.8L29.1588 7.3C28.8338 6.25 28.3005 5.4125 27.5588 4.7875C26.8255 4.15417 25.8838 3.83333 24.7338 3.825C23.5921 3.80833 22.6421 4.05417 21.8838 4.5625C21.1255 5.07083 20.5546 5.79167 20.1713 6.725C19.7963 7.65833 19.6088 8.75 19.6088 10C19.6088 11.25 19.7963 12.3333 20.1713 13.25C20.5546 14.1667 21.1255 14.8792 21.8838 15.3875C22.6421 15.8958 23.5921 16.1583 24.7338 16.175C25.5088 16.1917 26.2088 16.0583 26.8338 15.775C27.4671 15.4917 28.0005 15.0458 28.4338 14.4375C28.8671 13.8292 29.1755 13.05 29.3588 12.1H26.5088V9.475H32.9838C33.0005 9.58333 33.013 9.775 33.0213 10.05C33.0296 10.325 33.0338 10.4833 33.0338 10.525C33.0338 12.25 32.6838 13.7792 31.9838 15.1125C31.2838 16.4458 30.2963 17.4917 29.0213 18.25C27.7463 19 26.2421 19.375 24.5088 19.375Z" fill="#3091EB"/>
<path d="M35.5391 19V1H38.9391V8.4H46.9891V1H50.3891V19H46.9891V11.575H38.9391V19H35.5391Z" fill="#3091EB"/>
<path d="M53.8984 19V1H65.6484V4.175H57.2984V8.025H64.1484V11.2H57.2984V15.825H65.6484V19H53.8984Z" fill="#3091EB"/>
<path d="M68.8945 19V1H72.2945V15.825H80.0445V19H68.8945Z" fill="#3091EB"/>
<path d="M82.1699 19V1H89.7699C89.9449 1 90.1783 1.00833 90.4699 1.025C90.7699 1.03333 91.0366 1.05833 91.2699 1.1C92.3449 1.26667 93.2241 1.62083 93.9074 2.1625C94.5991 2.70417 95.1074 3.3875 95.4324 4.2125C95.7574 5.02917 95.9199 5.94167 95.9199 6.95C95.9199 7.95833 95.7533 8.875 95.4199 9.7C95.0949 10.5167 94.5866 11.1958 93.8949 11.7375C93.2116 12.2792 92.3366 12.6333 91.2699 12.8C91.0366 12.8333 90.7699 12.8583 90.4699 12.875C90.1699 12.8917 89.9366 12.9 89.7699 12.9H85.5699V19H82.1699ZM85.5699 9.725H89.6199C89.7949 9.725 89.9866 9.71667 90.1949 9.7C90.4033 9.68333 90.5949 9.65 90.7699 9.6C91.2283 9.475 91.5824 9.26667 91.8324 8.975C92.0824 8.675 92.2533 8.34583 92.3449 7.9875C92.4449 7.62083 92.4949 7.275 92.4949 6.95C92.4949 6.625 92.4449 6.28333 92.3449 5.925C92.2533 5.55833 92.0824 5.22917 91.8324 4.9375C91.5824 4.6375 91.2283 4.425 90.7699 4.3C90.5949 4.25 90.4033 4.21667 90.1949 4.2C89.9866 4.18333 89.7949 4.175 89.6199 4.175H85.5699V9.725Z" fill="#3091EB"/>
<path d="M98.4297 19V1H110.18V4.175H101.83V8.025H108.68V11.2H101.83V15.825H110.18V19H98.4297Z" fill="#3091EB"/>
<path d="M113.176 19V1H120.776C120.951 1 121.184 1.00833 121.476 1.025C121.776 1.03333 122.042 1.05833 122.276 1.1C123.351 1.26667 124.23 1.62083 124.913 2.1625C125.605 2.70417 126.113 3.3875 126.438 4.2125C126.763 5.02917 126.926 5.94167 126.926 6.95C126.926 8.45833 126.551 9.75 125.801 10.825C125.051 11.8917 123.876 12.55 122.276 12.8L120.776 12.9H116.576V19H113.176ZM123.326 19L119.776 11.675L123.276 11L127.176 19H123.326ZM116.576 9.725H120.626C120.801 9.725 120.992 9.71667 121.201 9.7C121.409 9.68333 121.601 9.65 121.776 9.6C122.234 9.475 122.588 9.26667 122.838 8.975C123.088 8.675 123.259 8.34583 123.351 7.9875C123.451 7.62083 123.501 7.275 123.501 6.95C123.501 6.625 123.451 6.28333 123.351 5.925C123.259 5.55833 123.088 5.22917 122.838 4.9375C122.588 4.6375 122.234 4.425 121.776 4.3C121.601 4.25 121.409 4.21667 121.201 4.2C120.992 4.18333 120.801 4.175 120.626 4.175H116.576V9.725Z" fill="#3091EB"/>
</svg>
