<svg width="61" height="48" viewBox="0 0 61 48" fill="none" xmlns="http://www.w3.org/2000/svg">
<rect y="0.471436" width="61" height="47.0571" rx="23.5286" fill="white"/>
<path d="M38.3141 10.3033C38.3141 10.3033 40.8668 9.09626 40.6541 12.0277C40.5832 13.2347 39.945 17.4594 39.4486 22.029L37.7468 35.5653C37.7468 35.5653 37.605 37.5483 36.3286 37.8932C35.0522 38.238 33.1376 36.6861 32.783 36.3412C32.4994 36.0826 27.4648 32.2028 25.692 30.306C25.1957 29.7886 24.6284 28.754 25.7629 27.547L33.2085 18.9252C34.0595 17.8905 34.9104 15.4764 31.3648 18.4079L21.4374 26.5986C21.4374 26.5986 20.3029 27.4608 18.1756 26.6848L13.5664 24.9604C13.5664 24.9604 11.8646 23.6672 14.7719 22.3738C21.8629 18.3216 30.5849 14.1831 38.3141 10.3033Z" fill="#3091EB"/>
</svg>
