<svg width="56" height="44" viewBox="0 0 56 44" fill="none" xmlns="http://www.w3.org/2000/svg">
<rect x="0.0498047" y="0.652344" width="55.8997" height="43.1226" rx="21.5613" fill="white"/>
<path d="M35.1604 9.66212C35.1604 9.66212 37.4997 8.55599 37.3047 11.2423C37.2398 12.3485 36.655 16.2199 36.2001 20.4074L34.6405 32.8119C34.6405 32.8119 34.5106 34.6291 33.3409 34.9452C32.1712 35.2611 30.4168 33.839 30.0918 33.523C29.8319 33.286 25.2183 29.7305 23.5937 27.9923C23.1388 27.5182 22.619 26.5701 23.6587 25.464L30.4817 17.5631C31.2615 16.615 32.0413 14.4027 28.7922 17.089L19.6949 24.5949C19.6949 24.5949 18.6552 25.385 16.7058 24.6739L12.482 23.0937C12.482 23.0937 10.9224 21.9086 13.5866 20.7234C20.0848 17.01 28.0775 13.2175 35.1604 9.66212Z" fill="#3091EB"/>
</svg>
